<svg version="1.1" id="Layer_1" xmlns="http://www.w3.org/2000/svg" xmlns:xlink="http://www.w3.org/1999/xlink" x="0px" y="0px" width="100%" viewBox="0 0 5000 5000" enable-background="new 0 0 5000 5000" xml:space="preserve">

<path fill="#7F4393" opacity="1.000000" stroke="none" d="
M565.874634,5004.000000 
	C563.300842,4999.491699 563.256226,4994.760742 561.807068,4990.508301 
	C522.929138,4876.417969 483.535919,4762.501953 445.024536,4648.288574 
	C413.322144,4554.269043 382.670868,4459.895996 351.485016,4365.701660 
	C337.044006,4322.083984 321.759949,4278.731445 308.079956,4234.877930 
	C290.632111,4178.944824 274.224121,4122.684082 257.731506,4066.457764 
	C241.614258,4011.511475 226.415024,3956.292480 209.900177,3901.468018 
	C201.598480,3873.908691 196.674149,3845.815918 192.300583,3817.520508 
	C184.673141,3768.173828 176.946442,3718.842285 169.368759,3669.488037 
	C162.093292,3622.102295 154.967804,3574.693604 147.739624,3527.300537 
	C146.735870,3520.719238 145.678162,3514.138672 144.376282,3507.611572 
	C139.918060,3485.260742 139.281738,3462.682861 139.622116,3439.977295 
	C139.971802,3416.649414 140.130829,3393.301025 139.554962,3369.982178 
	C139.139755,3353.168701 141.126724,3336.833496 144.978516,3320.530518 
	C156.918198,3269.995850 168.163223,3219.293213 180.559113,3168.872070 
	C186.274200,3145.625732 193.824982,3122.817139 200.916656,3099.925293 
	C216.483292,3049.677002 232.120667,2999.448486 248.128128,2949.339600 
	C251.550156,2938.627686 256.034760,2928.137695 261.110229,2918.091309 
	C286.042694,2868.740234 312.379791,2820.070068 336.205841,2770.196777 
	C358.592133,2723.337402 379.019928,2675.512207 399.292603,2627.681152 
	C422.481110,2572.970215 450.703766,2520.796387 479.603821,2469.102295 
	C500.048248,2432.532715 525.671997,2398.896973 547.199097,2362.885010 
	C573.713989,2318.529053 606.742981,2279.441162 640.896484,2241.151855 
	C681.698792,2195.407959 722.891785,2150.010742 764.128113,2104.656738 
	C776.223389,2091.353516 788.849426,2078.515381 801.558899,2065.790527 
	C895.782654,1971.452759 990.048096,1877.156494 1084.435059,1782.982178 
	C1093.467529,1773.970215 1101.307983,1764.261719 1108.063354,1753.442261 
	C1135.592529,1709.352173 1163.401855,1665.437134 1191.081665,1621.441040 
	C1193.555176,1617.509399 1195.840332,1613.459106 1198.645752,1608.735352 
	C1193.685425,1591.833740 1188.747192,1574.609619 1183.577393,1557.455322 
	C1139.193726,1410.179199 1094.816895,1262.901123 1050.261230,1115.677002 
	C1046.747314,1104.066284 1044.935059,1092.508911 1044.952637,1080.355103 
	C1045.130005,957.688843 1045.118042,835.022156 1044.961548,712.355835 
	C1044.947754,701.598511 1045.991089,691.129578 1048.533447,680.720398 
	C1060.540405,631.561829 1072.551147,582.403931 1084.390991,533.204895 
	C1087.216431,521.464417 1091.509521,510.614349 1097.978394,500.256134 
	C1128.334351,451.648804 1158.283203,402.786530 1188.217529,353.917297 
	C1195.559326,341.931458 1203.861816,330.863495 1213.506958,320.565521 
	C1238.553467,293.823822 1263.033936,266.552460 1287.824951,239.570435 
	C1293.207520,233.712097 1298.600830,228.059998 1306.170044,224.484604 
	C1357.971313,200.015808 1409.590576,175.162552 1461.340698,150.584900 
	C1468.529907,147.170547 1475.976685,144.168182 1483.538574,141.689819 
	C1539.232300,123.436462 1595.338257,106.573318 1652.130371,92.029152 
	C1679.213989,85.093163 1706.182495,77.707230 1733.274780,70.806335 
	C1739.655029,69.181175 1746.316406,67.884506 1752.862427,67.818115 
	C1783.526001,67.507095 1814.197632,67.925896 1844.858887,67.518173 
	C1853.389404,67.404732 1860.117920,70.240067 1867.005005,74.755890 
	C1880.369141,83.518784 1894.034180,91.854019 1907.879150,99.838455 
	C1914.772095,103.813705 1922.170288,107.069916 1929.634766,109.863953 
	C1944.693359,115.500595 1947.741211,114.365692 1958.440918,100.564758 
	C1965.863892,99.302269 1973.633789,100.426361 1981.515869,102.063690 
	C2020.715210,110.206276 2058.818115,122.222069 2096.844971,134.491806 
	C2225.542236,176.016998 2352.354980,222.870300 2479.085693,269.945740 
	C2522.160645,285.946411 2564.995605,302.595886 2608.134277,318.420197 
	C2618.536865,322.236084 2626.980225,327.769104 2633.963379,336.245544 
	C2641.136719,344.952484 2648.873047,353.195648 2657.106445,362.480225 
	C2653.665039,366.313660 2651.002197,369.998016 2647.651367,372.883270 
	C2635.531982,383.318909 2623.135254,393.431305 2610.944580,403.785370 
	C2606.940918,407.185699 2603.246582,410.949768 2599.903564,414.085419 
	C2600.013184,419.531769 2603.764404,419.917816 2606.727783,420.943573 
	C2629.384277,428.786407 2652.047607,436.610352 2674.752441,444.311554 
	C2738.447754,465.916168 2802.173096,487.432892 2865.856689,509.072327 
	C2871.379150,510.948853 2876.681396,513.473389 2882.981201,516.065186 
	C2875.076660,533.050232 2863.690430,546.122375 2854.423584,560.498108 
	C2845.065186,575.015625 2835.220215,589.219849 2825.334961,603.939270 
	C2829.976807,612.951233 2837.112061,618.993591 2843.357178,625.637512 
	C2854.310303,637.289368 2865.481445,648.746216 2876.848145,659.994812 
	C2882.214600,665.305359 2886.089355,671.255310 2888.228271,678.460144 
	C2889.554443,682.927063 2891.133789,687.320496 2892.659180,691.726257 
	C2898.539307,708.711609 2906.755127,725.299072 2909.700195,742.776306 
	C2912.762207,760.947205 2910.834473,779.974731 2910.915283,798.628479 
	C2911.016113,821.961365 2911.239502,845.300720 2910.791504,868.625427 
	C2910.614014,877.861328 2909.635254,887.265503 2907.544189,896.249268 
	C2898.337402,935.802673 2888.506836,975.210449 2879.106934,1014.719788 
	C2877.036865,1023.420349 2873.207764,1030.661377 2866.616943,1036.885620 
	C2855.552734,1047.334961 2845.032227,1058.359863 2833.159668,1070.269653 
	C2831.152344,1066.289062 2829.224121,1063.720825 2828.509766,1060.850464 
	C2822.883789,1038.238892 2817.535645,1015.558350 2811.997070,992.924622 
	C2810.301025,985.993286 2808.279297,979.141602 2806.478271,972.516968 
	C2799.261963,972.200867 2798.224609,977.577454 2795.982666,981.272827 
	C2768.678711,1026.285400 2741.492188,1071.369141 2714.260254,1116.425293 
	C2681.513916,1170.605713 2648.926270,1224.883423 2615.850342,1278.862061 
	C2609.349854,1289.470581 2605.907959,1299.767822 2606.710938,1312.549316 
	C2609.425293,1355.749268 2610.551270,1399.049316 2613.296143,1442.246826 
	C2614.346680,1458.779907 2617.577637,1475.246582 2620.757080,1491.559814 
	C2634.639404,1562.785400 2648.902832,1633.936646 2662.909668,1705.138184 
	C2664.170166,1711.544922 2664.586426,1718.117920 2665.481445,1725.308716 
	C2642.467041,1734.979492 2619.268311,1740.854858 2596.685547,1748.460083 
	C2574.628906,1755.887939 2552.427734,1762.886719 2529.148193,1770.444824 
	C2528.666260,1775.557739 2527.756836,1780.687256 2527.767578,1785.814941 
	C2527.843262,1821.809692 2527.789551,1857.810547 2528.514648,1893.794556 
	C2528.722656,1904.111084 2526.747314,1913.431763 2523.055176,1922.875122 
	C2517.457275,1937.193359 2510.339844,1950.657227 2502.976807,1964.122925 
	C2493.363525,1981.704712 2478.883301,1991.851807 2459.983887,1996.984131 
	C2448.496338,2000.103760 2437.225830,2004.021973 2425.381104,2007.730713 
	C2424.977783,2013.159424 2424.367920,2017.685303 2424.350342,2022.213623 
	C2424.251953,2047.546509 2424.154785,2072.881348 2424.384277,2098.212646 
	C2424.447754,2105.221680 2422.641113,2111.036621 2418.281494,2116.595459 
	C2405.945068,2132.326416 2394.240234,2148.556885 2381.735107,2164.148193 
	C2377.677734,2169.207031 2372.356934,2173.597412 2366.844727,2177.074219 
	C2354.463867,2184.884033 2342.363525,2194.513184 2328.714600,2198.540283 
	C2315.775879,2202.357666 2301.009277,2200.214600 2287.044922,2200.276123 
	C2253.712402,2200.422363 2220.377441,2200.156738 2187.046143,2200.423584 
	C2176.829590,2200.505371 2167.402832,2199.325684 2158.469238,2193.656494 
	C2151.195068,2189.040527 2142.892334,2186.081055 2135.336426,2181.865723 
	C2088.535889,2155.757568 2037.008423,2145.668457 1984.964966,2137.366211 
	C1981.852295,2136.869873 1978.061279,2137.125000 1975.301758,2138.484131 
	C1957.974121,2147.018799 1940.591187,2155.510498 1923.803711,2165.034180 
	C1918.250977,2168.184326 1914.308838,2174.255371 1909.795776,2179.143555 
	C1861.891113,2231.029541 1814.013184,2282.940674 1766.141724,2334.857178 
	C1735.880737,2367.675049 1705.631348,2400.503662 1675.409790,2433.357666 
	C1671.809448,2437.271729 1668.418091,2441.378174 1664.307739,2446.112061 
	C1664.307739,2458.280029 1664.573486,2470.922363 1664.204102,2483.546387 
	C1663.995728,2490.663086 1666.590698,2496.187012 1670.652832,2501.809326 
	C1721.837036,2572.650635 1765.793701,2648.172607 1812.478638,2721.919922 
	C1823.116699,2738.724609 1831.016602,2757.289551 1839.836060,2775.212158 
	C1856.012329,2808.084717 1872.622925,2840.768799 1887.810913,2874.097168 
	C1914.047607,2931.671631 1940.044800,2989.376465 1964.852295,3047.576416 
	C2000.370728,3130.905029 2035.295166,3214.498047 2069.373779,3298.424805 
	C2090.415039,3350.243896 2110.010010,3402.676758 2129.036865,3455.274414 
	C2136.707031,3476.478027 2141.225342,3498.831543 2147.005859,3520.707520 
	C2166.745361,3595.410889 2183.806396,3670.741699 2198.808105,3746.522461 
	C2202.808838,3766.733154 2205.181396,3787.319336 2207.306396,3807.836426 
	C2211.077637,3844.247803 2216.358887,3880.492920 2217.319092,3917.218018 
	C2218.083984,3946.465820 2221.102783,3975.648926 2222.619141,4004.886963 
	C2223.028809,4012.787109 2221.446533,4020.773682 2221.060791,4028.734375 
	C2217.159180,4109.271973 2215.889160,4189.858398 2215.337646,4270.488281 
	C2215.106201,4304.341309 2210.914551,4338.167480 2208.483887,4372.564453 
	C2200.089844,4378.761719 2192.121094,4384.676270 2184.120850,4390.547852 
	C1919.765381,4584.563965 1655.401855,4778.568848 1391.060547,4972.603516 
	C1378.176270,4982.061035 1365.479126,4991.772949 1352.347412,5002.683594 
	C1090.583130,5004.000000 829.166199,5004.000000 565.874634,5004.000000 
z" data-index="1" style="opacity: 1; visibility: visible;"></path>
<path fill="#1F9847" opacity="1.000000" stroke="none" d="
M2897.874512,5004.000000 
	C2891.898682,4993.019531 2882.296143,4986.425781 2874.700684,4978.484375 
	C2818.049072,4919.255859 2760.867676,4860.534180 2704.007080,4801.504395 
	C2648.074219,4743.437988 2592.380371,4685.141602 2536.473145,4627.051270 
	C2496.733887,4585.760254 2456.774414,4544.680664 2416.988525,4503.434082 
	C2383.682617,4468.905273 2350.475830,4434.280273 2317.270508,4399.654785 
	C2315.485840,4397.793457 2314.121582,4395.529297 2312.283447,4393.082031 
	C2318.932129,4381.201660 2325.375244,4369.572266 2331.926514,4358.003906 
	C2369.023438,4292.496582 2406.066406,4226.958496 2443.357422,4161.562012 
	C2448.276123,4152.936035 2453.818848,4144.473145 2460.234131,4136.921387 
	C2542.681396,4039.868652 2621.195801,3939.660400 2699.598877,3839.358398 
	C2704.512207,3833.072510 2709.651367,3826.858154 2715.381348,3821.332275 
	C2744.635254,3793.118652 2774.061035,3765.082031 2803.583252,3737.148926 
	C2807.906494,3733.057861 2812.937012,3729.660156 2817.866455,3726.271240 
	C2879.370117,3683.991455 2940.950684,3641.822998 3002.408936,3599.477539 
	C3010.614014,3593.824463 3018.628906,3587.777832 3026.097168,3581.193359 
	C3065.082764,3546.822266 3103.863281,3512.218750 3143.410400,3477.077881 
	C3143.697998,3472.288574 3144.285400,3467.043945 3144.287842,3461.798828 
	C3144.341064,3344.467041 3144.328857,3227.135010 3144.332520,3109.803223 
	C3144.332764,3101.812012 3144.048584,3094.042236 3141.269775,3086.221436 
	C3125.443848,3041.682373 3110.059326,2996.986572 3094.479248,2952.359863 
	C3090.500488,2940.963135 3084.753174,2930.636719 3077.234131,2921.044922 
	C3057.087891,2895.345459 3037.727295,2869.029297 3017.525879,2843.374268 
	C2990.541748,2809.105957 2957.605957,2780.926514 2923.409912,2754.262939 
	C2916.240479,2748.672607 2907.255615,2744.946533 2898.578857,2741.833984 
	C2863.487793,2729.245361 2828.266113,2717.007080 2792.935547,2705.105713 
	C2776.485840,2699.564697 2760.406006,2693.414307 2745.040283,2685.257080 
	C2729.161377,2676.826904 2713.069580,2668.765137 2696.814941,2661.083740 
	C2680.930420,2653.576660 2667.461426,2642.897705 2653.377441,2630.273682 
	C2651.391846,2610.770020 2649.062012,2590.337646 2647.400879,2569.851318 
	C2646.982910,2564.696045 2648.240234,2559.248535 2649.532471,2554.138916 
	C2654.265869,2535.424561 2659.421143,2516.817871 2664.244385,2498.125732 
	C2666.269043,2490.278076 2669.544922,2483.181885 2674.336914,2476.600342 
	C2681.787109,2466.367676 2688.582520,2455.654785 2696.118164,2445.488525 
	C2701.134033,2438.721436 2703.149414,2431.594727 2702.971924,2423.180420 
	C2702.564697,2403.878662 2702.843018,2384.562500 2702.843018,2366.540283 
	C2704.458984,2364.156738 2704.963623,2362.713135 2705.980225,2362.017090 
	C2722.954346,2350.396484 2734.441650,2334.662842 2742.762451,2315.932861 
	C2750.877197,2297.667236 2760.777588,2280.291748 2773.426514,2264.591553 
	C2776.238037,2261.101807 2778.737793,2256.611084 2779.401367,2252.277832 
	C2781.617920,2237.804932 2782.835693,2223.182129 2784.644775,2208.642578 
	C2785.429443,2202.336182 2783.803711,2196.933838 2780.392822,2191.658447 
	C2770.796631,2176.816895 2758.888916,2164.548828 2742.830078,2156.709961 
	C2738.648193,2154.668457 2734.399658,2152.764160 2729.468506,2150.464111 
	C2727.179932,2132.075439 2728.780518,2113.541748 2728.444336,2094.152344 
	C2731.740967,2091.438721 2734.981201,2088.143311 2738.785889,2085.742920 
	C2762.447754,2070.814453 2786.269287,2056.140137 2809.959961,2041.257568 
	C2816.364990,2037.233887 2823.020996,2035.167847 2830.703857,2035.568115 
	C2839.346924,2036.018433 2848.055420,2035.267944 2856.691406,2035.778442 
	C2865.115723,2036.276367 2872.171143,2033.675171 2879.131592,2029.213013 
	C2912.818604,2007.616699 2947.596924,1987.991943 2984.371094,1972.060425 
	C2991.193359,1969.104980 2996.911377,1964.988647 3001.396973,1958.733276 
	C3038.058105,1907.607544 3083.688721,1864.429565 3126.134033,1818.426880 
	C3131.999023,1812.070435 3137.801758,1805.656372 3144.331055,1798.504761 
	C3144.331055,1791.681030 3144.331055,1784.396851 3144.331055,1777.112549 
	C3144.331055,1693.113525 3144.331055,1609.114624 3144.331055,1525.115601 
	C3140.048096,1501.928101 3150.886230,1483.611206 3164.244141,1466.680176 
	C3177.857910,1449.424683 3192.031982,1432.518677 3207.094971,1416.527954 
	C3219.521240,1403.336426 3235.638672,1394.568237 3252.275635,1387.856445 
	C3278.814941,1377.149780 3305.845459,1367.634277 3332.847656,1358.124023 
	C3338.979736,1355.964478 3345.842041,1355.012939 3352.373779,1354.988892 
	C3414.372314,1354.760498 3476.372314,1354.733154 3538.370361,1355.001343 
	C3546.252197,1355.035400 3554.218750,1356.652100 3561.986328,1358.292358 
	C3609.049316,1368.230103 3654.100586,1384.406372 3698.936768,1401.592163 
	C3859.381104,1463.090942 4020.068359,1523.955566 4180.591309,1585.250366 
	C4189.855469,1588.787842 4198.691895,1593.631348 4207.341309,1598.547363 
	C4218.341309,1604.799438 4228.641113,1612.316528 4239.788086,1618.268311 
	C4259.546387,1628.818359 4275.568359,1643.694092 4290.288086,1660.127930 
	C4329.410156,1703.805908 4367.975098,1747.988403 4407.495117,1791.301392 
	C4432.330078,1818.520752 4453.285645,1848.410645 4473.250000,1879.192749 
	C4493.918457,1911.061279 4515.230957,1942.511597 4535.930664,1974.360107 
	C4540.604492,1981.551147 4544.588379,1989.366333 4547.714844,1997.354248 
	C4556.450684,2019.672974 4564.203125,2042.379272 4573.089844,2064.634766 
	C4577.395996,2075.417725 4578.895996,2086.194824 4578.990723,2097.697266 
	C4579.424316,2150.335938 4579.856445,2202.984131 4581.264648,2255.602783 
	C4582.582520,2304.846191 4585.242676,2354.052490 4587.101562,2403.283203 
	C4589.237793,2459.850342 4591.104980,2516.427979 4593.162598,2572.998291 
	C4594.421387,2607.599854 4595.660645,2642.204346 4597.293945,2676.789062 
	C4597.602539,2683.321533 4598.950195,2690.045410 4601.152832,2696.204102 
	C4608.774902,2717.519287 4616.897949,2738.657715 4625.038086,2759.782959 
	C4626.946289,2764.734131 4629.526367,2769.448242 4632.043457,2774.139648 
	C4710.759766,2920.876953 4789.511230,3067.595459 4868.230957,3214.330811 
	C4871.044434,3219.574707 4873.589844,3224.962402 4876.891602,3231.541016 
	C4859.920410,3237.119629 4844.792969,3243.428223 4827.160645,3233.668945 
	C4806.809082,3222.403809 4785.217773,3213.375244 4764.135254,3203.438721 
	C4761.252930,3202.080566 4758.198242,3201.088135 4753.840820,3199.386475 
	C4753.360840,3203.223389 4752.671387,3205.605713 4752.832031,3207.928955 
	C4754.671875,3234.489258 4757.128418,3261.016846 4758.439453,3287.601318 
	C4759.759766,3314.351562 4765.640625,3340.367676 4769.918945,3366.624023 
	C4781.056641,3434.980469 4792.814453,3503.236084 4804.384766,3571.521484 
	C4814.174316,3629.301270 4824.066895,3687.063721 4833.873535,3744.840576 
	C4836.768555,3761.900391 4839.524414,3778.984375 4842.556641,3797.344971 
	C4838.641602,3800.032715 4834.518066,3802.863525 4829.740234,3806.143311 
	C4826.313477,3802.648438 4823.456543,3800.025635 4820.931641,3797.114990 
	C4795.315918,3767.583740 4778.820801,3732.547119 4761.252930,3698.151123 
	C4741.561035,3659.596680 4721.789062,3621.083252 4701.965332,3582.596680 
	C4700.199707,3579.169922 4697.792969,3576.073730 4695.621094,3572.726318 
	C4681.784668,3577.384521 4675.205566,3586.387695 4670.365234,3599.251465 
	C4663.024902,3618.755127 4662.508789,3637.917725 4665.249023,3658.071777 
	C4672.076660,3708.290771 4684.300293,3757.440430 4693.991699,3807.086670 
	C4703.304199,3854.790771 4713.431152,3902.335449 4723.158691,3949.958984 
	C4723.418457,3951.231934 4723.191406,3952.604248 4723.191406,3954.401611 
	C4716.818848,3959.410156 4709.165039,3957.258789 4702.287109,3956.907471 
	C4684.019531,3955.974609 4666.726074,3952.201660 4654.568848,3936.313477 
	C4650.556641,3931.070068 4645.300781,3926.747314 4640.435059,3922.194580 
	C4631.962891,3914.267090 4622.480469,3909.017090 4610.370605,3908.058350 
	C4600.576660,3907.282959 4590.951660,3904.359863 4580.092773,3902.153809 
	C4578.064941,3933.270508 4583.501953,3962.877686 4584.778320,3992.638672 
	C4586.061035,4022.555176 4589.418945,4052.378418 4591.573242,4082.263428 
	C4593.723633,4112.088379 4595.509277,4141.939941 4597.475586,4172.104492 
	C4588.581055,4179.370117 4580.424805,4186.033203 4571.607910,4193.235352 
	C4552.525879,4182.543945 4535.965332,4169.289551 4518.599609,4157.285645 
	C4501.059082,4145.161133 4483.689453,4132.787109 4466.247559,4120.519531 
	C4449.350586,4108.633789 4432.456055,4096.744629 4415.561035,4084.856445 
	C4398.121582,4072.584717 4380.695801,4060.293945 4363.240723,4048.045166 
	C4345.857910,4035.847412 4328.444824,4023.692139 4310.921387,4011.430908 
	C4305.437012,4022.590332 4305.352051,4022.588623 4305.172363,4032.112305 
	C4304.833496,4050.098389 4304.543457,4068.085938 4304.339844,4086.074219 
	C4303.812500,4132.719727 4303.624023,4179.371094 4302.775879,4226.010742 
	C4301.760254,4281.937988 4300.201660,4337.854492 4298.859375,4394.559570 
	C4290.478516,4404.962891 4281.933105,4416.042480 4272.855957,4426.667969 
	C4267.037109,4433.479980 4263.768555,4440.889648 4262.340820,4449.800293 
	C4256.549805,4485.960938 4250.195312,4522.030273 4244.071777,4558.137695 
	C4242.290039,4568.642090 4240.994629,4579.249023 4238.714844,4589.642090 
	C4236.870605,4598.050293 4234.590332,4606.502441 4231.287109,4614.427734 
	C4211.557129,4661.756836 4191.580078,4708.983887 4171.418945,4756.131348 
	C4167.504883,4765.285156 4162.645996,4774.064453 4157.825684,4782.797363 
	C4132.072754,4829.451172 4105.389160,4875.614258 4080.684082,4922.813965 
	C4067.456543,4948.084961 4057.561035,4975.100098 4047.081055,5002.664062 
	C3665.249756,5004.000000 3282.499512,5004.000000 2897.874512,5004.000000 
z" data-index="2" style="opacity: 1; visibility: visible;"></path>
</svg>